<?xml version="1.0" encoding="utf-8"?>
<!-- Generator: Adobe Illustrator 21.1.0, SVG Export Plug-In . SVG Version: 6.00 Build 0)  -->
<svg version="1.1" id="Layer_1" xmlns="http://www.w3.org/2000/svg" xmlns:xlink="http://www.w3.org/1999/xlink" x="0px" y="0px"
	 viewBox="0 0 25 79" style="enable-background:new 0 0 25 79;" xml:space="preserve">
<style type="text/css">
	.st0{fill:#DEDEDF;}
</style>
<path class="st0" d="M12.5,54C5.6,54,0,59.6,0,66.5c0,5.3,3.3,9.8,7.9,11.6c-0.1-1-0.2-2.5,0-3.6c0.2-1,1.5-6.2,1.5-6.2
	S9,67.6,9,66.4c0-1.7,1-3,2.3-3c1.1,0,1.6,0.8,1.6,1.8c0,1.1-0.7,2.7-1,4.2c-0.3,1.2,0.6,2.3,1.8,2.3c2.2,0,3.9-2.3,3.9-5.7
	c0-3-2.1-5.1-5.2-5.1c-3.6,0-5.6,2.7-5.6,5.4c0,1.1,0.4,2.2,0.9,2.9c0.1,0.1,0.1,0.2,0.1,0.4C7.7,70,7.5,70.8,7.5,71
	c-0.1,0.2-0.2,0.3-0.4,0.2c-1.6-0.7-2.5-3-2.5-4.8c0-3.9,2.9-7.6,8.3-7.6c4.3,0,7.7,3.1,7.7,7.2c0,4.3-2.7,7.8-6.5,7.8
	c-1.3,0-2.5-0.7-2.9-1.4c0,0-0.6,2.4-0.8,3c-0.3,1.1-1,2.4-1.6,3.3c1.2,0.4,2.4,0.6,3.7,0.6C19.4,79,25,73.4,25,66.5
	S19.4,54,12.5,54z"/>
<path class="st0" d="M18.2,7.9h-3.9V5.4c0-1,0.7-1.2,1.1-1.2c0.4,0,2.7,0,2.7,0V0h-3.8c-4.2,0-5.1,3.2-5.1,5.2V8H6.8v4.3h1.4
	c0,5.6,0,12.3,0,12.3h5.1c0,0,0-6.8,0-12.3h3.5L18.2,7.9z"/>
<path class="st0" d="M25,31.1c-0.9,0.4-1.9,0.7-2.9,0.9c1-0.7,1.9-1.8,2.3-3.1c-1,0.6-2.1,1.1-3.2,1.3c-0.9-1.1-2.3-1.8-3.7-1.8
	c-2.8,0-5.1,2.5-5.1,5.6c0,0.4,0.1,0.9,0.1,1.3c-4.3-0.2-8-2.4-10.6-5.8c-0.6,0.8-0.8,1.8-0.8,2.8c0,2,0.9,3.7,2.2,4.7
	c-0.8-0.1-1.6-0.3-2.3-0.7v0.1c0,2.7,1.8,5,4.1,5.4C4.7,41.9,4.3,42,3.8,42c-0.3,0-0.7,0-1-0.1c0.7,2.2,2.6,3.9,4.8,3.9
	c-1.8,1.5-4,2.4-6.4,2.4c-0.4,0-0.8,0-1.2-0.1c2.3,1.6,5,2.5,7.9,2.5c9.4,0,14.6-8.5,14.6-15.9c0-0.2,0-0.5,0-0.7
	C23.5,33.2,24.3,32.2,25,31.1z"/>
</svg>
