<?xml version="1.0" encoding="utf-8"?>
<!-- Generator: Adobe Illustrator 21.1.0, SVG Export Plug-In . SVG Version: 6.00 Build 0)  -->
<svg version="1.1" id="Layer_1" xmlns="http://www.w3.org/2000/svg" xmlns:xlink="http://www.w3.org/1999/xlink" x="0px" y="0px"
	 viewBox="0 0 28 109" style="enable-background:new 0 0 28 109;" xml:space="preserve">
<style type="text/css">
	.st0{fill:none;stroke:#000000;stroke-width:2;stroke-linecap:square;stroke-miterlimit:10;}
	.st1{display:none;}
	.st2{display:inline;fill:none;stroke:#000000;stroke-width:3;stroke-linecap:square;stroke-miterlimit:10;}
</style>
<g id="Layer_1_1_">
	<g>
		<line class="st0" x1="3.4" y1="37.7" x2="24.6" y2="37.7"/>
		<line class="st0" x1="7" y1="35.2" x2="7" y2="40"/>
		<line class="st0" x1="24.6" y1="45.1" x2="3.4" y2="45.1"/>
		<line class="st0" x1="21" y1="47.5" x2="21" y2="42.7"/>
	</g>
	<rect x="6.6" y="60.7" width="3.3" height="3.3"/>
	<rect x="12.3" y="60.7" width="3.3" height="3.3"/>
	<rect x="18" y="60.7" width="3.3" height="3.3"/>
	<rect x="18" y="66.4" width="3.3" height="3.3"/>
	<rect x="18" y="72" width="3.3" height="3.3"/>
	<rect x="6.6" y="66.4" width="3.3" height="3.3"/>
	<rect x="12.3" y="66.4" width="3.3" height="3.3"/>
	<rect x="12.3" y="72" width="3.3" height="3.3"/>
	<rect x="6.6" y="72" width="3.3" height="3.3"/>
	<g>
		<line class="st0" x1="9.4" y1="92.4" x2="14" y2="97.1"/>
		<line class="st0" x1="18.6" y1="92.4" x2="14" y2="97.1"/>
	</g>
	<g>
		<line class="st0" x1="3.4" y1="8" x2="24.6" y2="8"/>
		<line class="st0" x1="3.4" y1="14" x2="24.6" y2="14"/>
		<line class="st0" x1="24.6" y1="20" x2="3.4" y2="20"/>
	</g>
</g>
<g id="Layer_2" class="st1">
	<rect x="1.5" y="82.5" class="st2" width="25" height="25"/>
	<rect x="1.5" y="28.5" class="st2" width="25" height="25"/>
	<rect x="1.5" y="1.5" class="st2" width="25" height="25"/>
</g>
</svg>
